<svg width="244" height="68" viewBox="0 0 244 68" fill="none" xmlns="http://www.w3.org/2000/svg">
<path d="M24.3047 42.7578C23.8359 41.3047 23.3672 40.0156 22.8984 38.8906C22.4766 37.7656 22.1016 36.8047 21.7734 36.0078C19.9453 36.6172 17.9531 37.0391 15.7969 37.2734C15.7969 40.2734 15.8672 42.8281 16.0078 44.9375C16.0547 46.25 16.1016 47.375 16.1484 48.3125C16.2422 49.2031 16.3125 49.9766 16.3594 50.6328C16.4531 51.2891 16.5469 51.875 16.6406 52.3906C16.7344 52.9531 16.875 53.4922 17.0625 54.0078C16.125 54.7109 15.2109 55.2266 14.3203 55.5547C13.4766 55.8828 12.7266 56.1172 12.0703 56.2578C11.2734 56.4453 10.5703 56.4922 9.96094 56.3984C9.72656 55.7422 9.51562 55.0391 9.32812 54.2891C9.14062 53.5859 9 52.6016 8.90625 51.3359C8.85938 50.1172 8.83594 48.5469 8.83594 46.625C8.83594 44.7031 8.90625 42.2422 9.04688 39.2422C9.09375 38.9141 9.11719 38.5859 9.11719 38.2578C9.11719 37.9297 9.14062 37.6016 9.1875 37.2734C8.76562 37.2266 8.32031 37.1797 7.85156 37.1328C7.42969 37.0859 7.00781 37.0391 6.58594 36.9922C6.30469 36.2422 6.11719 35.5859 6.02344 35.0234C5.92969 34.4141 5.88281 33.9219 5.88281 33.5469C5.88281 33.0781 5.92969 32.7031 6.02344 32.4219C6.77344 32.5625 7.52344 32.6328 8.27344 32.6328H9.32812C9.42188 30.6641 9.51562 28.6719 9.60938 26.6562C9.70312 24.5938 9.77344 22.6016 9.82031 20.6797C9.91406 18.7109 9.98438 16.8594 10.0312 15.125C10.0781 13.3437 10.125 11.7266 10.1719 10.2734C8.76562 11.2109 7.54688 12.4297 6.51562 13.9297C5.48438 15.4297 4.78125 17.1641 4.40625 19.1328C3.79688 19.0391 3.28125 18.7578 2.85938 18.2891C2.4375 17.7734 2.08594 17.2578 1.80469 16.7422C1.47656 16.1328 1.19531 15.4531 0.960938 14.7031C0.726562 13.8125 0.726562 12.9219 0.960938 12.0312C1.19531 11.0937 1.54688 10.2266 2.01562 9.42969C2.48438 8.58594 3.02344 7.85937 3.63281 7.25C4.24219 6.59375 4.82812 6.07813 5.39062 5.70312C6.375 5.09375 7.38281 4.55469 8.41406 4.08594C9.49219 3.57031 10.6875 3.14844 12 2.82031C12.5156 2.30469 13.0781 1.83594 13.6875 1.41406C14.3438 0.992188 14.9531 0.734375 15.5156 0.640625C16.3125 0.453125 16.7578 0.945313 16.8516 2.11719C17.2734 2.07031 17.7188 2.04688 18.1875 2.04688C18.6562 2 19.1484 1.97656 19.6641 1.97656C21.4453 1.97656 23.2969 2.25781 25.2188 2.82031C27.1406 3.38281 28.8984 4.29688 30.4922 5.5625C32.1328 6.78125 33.4688 8.39844 34.5 10.4141C35.5312 12.3828 36.0469 14.7969 36.0469 17.6562C36.0469 20.8906 35.2734 23.8672 33.7266 26.5859C32.2266 29.3047 30.0703 31.5547 27.2578 33.3359C27.5859 34.1797 28.0078 35.2344 28.5234 36.5C29.0391 37.7656 29.5547 39.1953 30.0703 40.7891C30.8203 42.7578 31.6172 44.6094 32.4609 46.3438C33.3516 48.0312 34.2656 49.5078 35.2031 50.7734C36.1406 52.0391 37.125 53.0469 38.1562 53.7969C39.1875 54.5938 40.2188 55.0625 41.25 55.2031C40.6406 56.1406 39.9375 56.7969 39.1406 57.1719C38.3438 57.5469 37.5469 57.7812 36.75 57.875C35.8594 58.0156 34.9219 58.0156 33.9375 57.875C32.5781 57.5938 31.4062 56.9375 30.4219 55.9062C29.4375 54.875 28.5703 53.6328 27.8203 52.1797C27.1172 50.7266 26.4609 49.1797 25.8516 47.5391C25.2891 45.8516 24.7734 44.2578 24.3047 42.7578ZM16.1484 12.8047C16.1484 13.8359 16.125 15.0781 16.0781 16.5312C16.0312 17.9844 15.9844 19.5547 15.9375 21.2422C15.9375 22.9297 15.9141 24.7109 15.8672 26.5859C15.8203 28.4141 15.7969 30.2422 15.7969 32.0703C17.0625 31.8828 18.4453 31.5781 19.9453 31.1562C21.4922 30.7344 22.9219 30.0312 24.2344 29.0469C25.5469 28.0625 26.6484 26.75 27.5391 25.1094C28.4297 23.4688 28.875 21.3594 28.875 18.7812C28.875 16.8125 28.5234 15.1484 27.8203 13.7891C27.1641 12.3828 26.2969 11.2578 25.2188 10.4141C24.1406 9.52344 22.9453 8.89063 21.6328 8.51562C20.3672 8.09375 19.1016 7.88281 17.8359 7.88281C17.6016 7.88281 17.3672 7.88281 17.1328 7.88281C16.8984 7.88281 16.6406 7.90625 16.3594 7.95312C16.2188 9.45313 16.1484 11.0703 16.1484 12.8047ZM40.3359 25.1094C40.3359 24.8281 40.7109 24.5234 41.4609 24.1953C42.2109 23.8672 43.0312 23.6094 43.9219 23.4219C44.8594 23.1875 45.7031 23.0703 46.4531 23.0703C47.25 23.0234 47.6484 23.1875 47.6484 23.5625C47.6484 24.2656 47.6016 25.2734 47.5078 26.5859C47.4141 27.8516 47.2969 29.2109 47.1562 30.6641C47.0156 32.0703 46.875 33.5 46.7344 34.9531C46.5938 36.3594 46.5 37.5547 46.4531 38.5391C46.3594 39.5703 46.2656 40.6953 46.1719 41.9141C46.0781 42.9453 46.0078 44.0938 45.9609 45.3594C45.9141 46.625 45.9141 47.9141 45.9609 49.2266C45.9609 49.4609 45.7266 49.6953 45.2578 49.9297C44.7891 50.1641 44.2734 50.3281 43.7109 50.4219C43.1484 50.5625 42.6094 50.6328 42.0938 50.6328C41.5781 50.6328 41.2969 50.5391 41.25 50.3516C41.1562 50.1641 41.0625 49.8359 40.9688 49.3672C40.875 48.8984 40.7812 48.2422 40.6875 47.3984C40.5938 46.5078 40.5234 45.3828 40.4766 44.0234C40.4297 42.6172 40.4531 40.9297 40.5469 38.9609C40.7344 35.0703 40.7578 32.0703 40.6172 29.9609C40.4766 27.8047 40.3828 26.1875 40.3359 25.1094ZM45.2578 11.1172C46.1953 11.1172 47.0859 11.3984 47.9297 11.9609C48.7734 12.5234 49.1953 13.2734 49.1953 14.2109C49.1953 14.9141 49.0078 15.5938 48.6328 16.25C48.3047 16.9062 47.8828 17.4922 47.3672 18.0078C46.8516 18.5234 46.2656 18.9453 45.6094 19.2734C44.9531 19.5547 44.3438 19.6953 43.7812 19.6953C43.0312 19.6953 42.4219 19.5781 41.9531 19.3438C41.4844 19.0625 41.1094 18.7578 40.8281 18.4297C40.5938 18.0547 40.4297 17.6562 40.3359 17.2344C40.2422 16.8125 40.1953 16.4141 40.1953 16.0391C40.1953 15.5703 40.2656 15.0547 40.4062 14.4922C40.5469 13.8828 40.8047 13.3437 41.1797 12.875C41.5547 12.3594 42.0703 11.9375 42.7266 11.6094C43.3828 11.2813 44.2266 11.1172 45.2578 11.1172ZM43.5 17.6562C43.7812 17.6562 44.0859 17.5625 44.4141 17.375C44.7891 17.1406 45.1172 16.8828 45.3984 16.6016C45.7266 16.3203 45.9844 16.0156 46.1719 15.6875C46.4062 15.3594 46.5234 15.0781 46.5234 14.8438C46.5234 14.4688 46.3359 14.2812 45.9609 14.2812C45.7266 14.2812 45.4219 14.375 45.0469 14.5625C44.7188 14.75 44.3906 14.9844 44.0625 15.2656C43.7344 15.5 43.4531 15.7812 43.2188 16.1094C43.0312 16.3906 42.9375 16.6719 42.9375 16.9531C42.9375 17.4219 43.125 17.6562 43.5 17.6562ZM78.9375 18.7109C78.4219 18.6172 77.7188 18.5234 76.8281 18.4297C75.9844 18.3359 75.1172 18.2656 74.2266 18.2188C73.1953 18.1719 72.0938 18.1484 70.9219 18.1484C69.75 18.0547 68.2734 18.0547 66.4922 18.1484C64.7578 18.1953 62.9297 18.2188 61.0078 18.2188C60.9609 19.4375 60.8672 20.6797 60.7266 21.9453C60.6328 23.2109 60.5391 24.4531 60.4453 25.6719C60.2109 27.9219 60 30.2188 59.8125 32.5625C59.6719 34.9062 59.6016 37.1328 59.6016 39.2422C59.6016 41.3516 59.7188 43.2734 59.9531 45.0078C60.2344 46.6953 60.7266 48.0312 61.4297 49.0156C60.8672 49.4375 60.2578 49.7656 59.6016 50C58.9453 50.1875 58.3594 50.3281 57.8438 50.4219C57.2344 50.5625 56.625 50.6328 56.0156 50.6328C55.4531 50.6328 54.9844 50.4453 54.6094 50.0703C54.2344 49.6953 54.0234 49.0391 53.9766 48.1016C53.8828 46.5078 53.8594 44.9141 53.9062 43.3203C54 41.6797 54.0938 39.9688 54.1875 38.1875C54.3281 36.4062 54.4688 34.5078 54.6094 32.4922C54.75 30.4297 54.8906 28.1797 55.0312 25.7422C55.1719 23.2109 55.2422 20.75 55.2422 18.3594C53.4609 18.4062 51.9609 18.4297 50.7422 18.4297C49.5234 18.4297 48.8438 18.4062 48.7031 18.3594C48.5625 18.2656 48.3984 18.0547 48.2109 17.7266C48.0234 17.4453 47.7891 17.0234 47.5078 16.4609C47.1797 15.8984 46.7812 15.1016 46.3125 14.0703C47.2031 14.0703 48.1875 14.0703 49.2656 14.0703C50.2969 14.0703 51.2578 14.0469 52.1484 14C53.1797 13.9531 54.2109 13.9062 55.2422 13.8594C55.1953 13.1094 55.1719 12.3125 55.1719 11.4688C55.125 10.8125 55.1016 10.0859 55.1016 9.28906C55.1016 8.44531 55.0781 7.67188 55.0312 6.96875C55.0312 6.6875 55.3594 6.35938 56.0156 5.98438C56.7188 5.5625 57.4688 5.1875 58.2656 4.85938C59.0625 4.53125 59.7891 4.32031 60.4453 4.22656C61.1484 4.13281 61.5 4.29688 61.5 4.71875C61.5 5.14062 61.4766 6.17187 61.4297 7.8125C61.4297 9.40625 61.3828 11.3516 61.2891 13.6484C61.7578 13.6484 62.1094 13.625 62.3438 13.5781C64.8281 13.4844 66.8203 13.3906 68.3203 13.2969C69.8672 13.1562 71.1328 13.1328 72.1172 13.2266C73.1016 13.3203 73.9688 13.5547 74.7188 13.9297C75.4688 14.3047 76.3125 14.9141 77.25 15.7578C77.5781 16.0391 77.8594 16.3438 78.0938 16.6719C78.3281 16.9531 78.5156 17.2812 78.6562 17.6562C78.8438 17.9844 78.9375 18.3359 78.9375 18.7109ZM67.5469 25.1094C67.5469 24.8281 67.9219 24.5234 68.6719 24.1953C69.4219 23.8672 70.2422 23.6094 71.1328 23.4219C72.0703 23.1875 72.9141 23.0703 73.6641 23.0703C74.4609 23.0234 74.8594 23.1875 74.8594 23.5625C74.8594 24.2656 74.8125 25.2734 74.7188 26.5859C74.625 27.8516 74.5078 29.2109 74.3672 30.6641C74.2266 32.0703 74.0859 33.5 73.9453 34.9531C73.8047 36.3594 73.7109 37.5547 73.6641 38.5391C73.5703 39.5703 73.4766 40.6953 73.3828 41.9141C73.2891 42.9453 73.2188 44.0938 73.1719 45.3594C73.125 46.625 73.125 47.9141 73.1719 49.2266C73.1719 49.4609 72.9375 49.6953 72.4688 49.9297C72 50.1641 71.4844 50.3281 70.9219 50.4219C70.3594 50.5625 69.8203 50.6328 69.3047 50.6328C68.7891 50.6328 68.5078 50.5391 68.4609 50.3516C68.3672 50.1641 68.2734 49.8359 68.1797 49.3672C68.0859 48.8984 67.9922 48.2422 67.8984 47.3984C67.8047 46.5078 67.7344 45.3828 67.6875 44.0234C67.6406 42.6172 67.6641 40.9297 67.7578 38.9609C67.9453 35.0703 67.9688 32.0703 67.8281 29.9609C67.6875 27.8047 67.5938 26.1875 67.5469 25.1094ZM72.4688 11.1172C73.4062 11.1172 74.2969 11.3984 75.1406 11.9609C75.9844 12.5234 76.4062 13.2734 76.4062 14.2109C76.4062 14.9141 76.2188 15.5938 75.8438 16.25C75.5156 16.9062 75.0938 17.4922 74.5781 18.0078C74.0625 18.5234 73.4766 18.9453 72.8203 19.2734C72.1641 19.5547 71.5547 19.6953 70.9922 19.6953C70.2422 19.6953 69.6328 19.5781 69.1641 19.3438C68.6953 19.0625 68.3203 18.7578 68.0391 18.4297C67.8047 18.0547 67.6406 17.6562 67.5469 17.2344C67.4531 16.8125 67.4062 16.4141 67.4062 16.0391C67.4062 15.5703 67.4766 15.0547 67.6172 14.4922C67.7578 13.8828 68.0156 13.3437 68.3906 12.875C68.7656 12.3594 69.2812 11.9375 69.9375 11.6094C70.5938 11.2813 71.4375 11.1172 72.4688 11.1172ZM70.7109 17.6562C70.9922 17.6562 71.2969 17.5625 71.625 17.375C72 17.1406 72.3281 16.8828 72.6094 16.6016C72.9375 16.3203 73.1953 16.0156 73.3828 15.6875C73.6172 15.3594 73.7344 15.0781 73.7344 14.8438C73.7344 14.4688 73.5469 14.2812 73.1719 14.2812C72.9375 14.2812 72.6328 14.375 72.2578 14.5625C71.9297 14.75 71.6016 14.9844 71.2734 15.2656C70.9453 15.5 70.6641 15.7812 70.4297 16.1094C70.2422 16.3906 70.1484 16.6719 70.1484 16.9531C70.1484 17.4219 70.3359 17.6562 70.7109 17.6562ZM93.9141 33.1953C94.8984 33.6172 95.8359 34.2969 96.7266 35.2344C97.6172 36.125 98.1797 37.4844 98.4141 39.3125C98.6016 40.9062 98.8594 42.3359 99.1875 43.6016C99.5156 44.8672 99.9844 46.0156 100.594 47.0469C101.203 48.0312 102 48.9219 102.984 49.7188C104.016 50.4688 105.328 51.125 106.922 51.6875C106.5 52.0625 105.984 52.3672 105.375 52.6016C104.812 52.8359 104.273 53 103.758 53.0938C103.148 53.2812 102.516 53.375 101.859 53.375C100.312 53.5156 99.0469 53.3047 98.0625 52.7422C97.0781 52.2266 96.3047 51.4531 95.7422 50.4219C95.1797 49.3906 94.7578 48.1953 94.4766 46.8359C94.1953 45.4766 93.9844 44.0703 93.8438 42.6172C93.7969 42.0078 93.7266 41.375 93.6328 40.7188C93.5391 40.0625 93.375 39.4297 93.1406 38.8203C92.9062 38.2109 92.5781 37.6484 92.1562 37.1328C91.7812 36.6172 91.2891 36.2188 90.6797 35.9375C89.6484 36.7344 88.6875 37.4375 87.7969 38.0469C86.9531 38.6094 86.2031 39.0781 85.5469 39.4531C85.5938 41.9844 85.7109 44.0703 85.8984 45.7109C86.1328 47.3516 86.4375 48.4531 86.8125 49.0156C86.4844 49.25 86.1562 49.4609 85.8281 49.6484C85.5 49.7891 85.2188 49.9062 84.9844 50C84.6562 50.1406 84.3516 50.2344 84.0703 50.2812C83.1328 50.5625 82.2891 50.5156 81.5391 50.1406C80.8359 49.8125 80.4609 48.8984 80.4141 47.3984L79.9922 6.33594C79.9922 5.96094 80.3438 5.58594 81.0469 5.21094C81.7969 4.78906 82.6172 4.46094 83.5078 4.22656C84.3984 3.99219 85.1953 3.875 85.8984 3.875C86.6484 3.875 87 4.08594 86.9531 4.50781C86.8125 7.74219 86.6719 10.7891 86.5312 13.6484C86.3906 16.5078 86.2734 19.0391 86.1797 21.2422C86.0391 23.8203 85.9219 26.1641 85.8281 28.2734C85.7344 29.5391 85.6641 30.7578 85.6172 31.9297C85.6172 33.1016 85.5938 34.2266 85.5469 35.3047C86.4375 34.6016 87.375 33.8281 88.3594 32.9844C89.3438 32.1406 90.2812 31.2031 91.1719 30.1719C92.0625 29.1406 92.8125 28.0391 93.4219 26.8672C94.0312 25.6484 94.3828 24.3594 94.4766 23C94.9922 22.625 95.5078 22.3203 96.0234 22.0859C96.5859 21.8047 97.0781 21.5938 97.5 21.4531C98.0156 21.2656 98.4844 21.1719 98.9062 21.1719C99.9844 21.125 100.617 21.3594 100.805 21.875C100.945 22.25 100.922 22.8125 100.734 23.5625C100.594 24.2656 100.242 25.1328 99.6797 26.1641C99.1641 27.1484 98.4375 28.25 97.5 29.4688C96.5625 30.6406 95.3672 31.8828 93.9141 33.1953ZM129.844 37.2734C129.047 37.9297 128.602 39.1016 128.508 40.7891C128.461 42.4297 128.742 44.1172 129.352 45.8516C130.008 47.5391 130.992 49.0391 132.305 50.3516C133.617 51.6641 135.258 52.3203 137.227 52.3203C138.492 52.3203 139.57 52.0156 140.461 51.4062C141.398 50.7969 142.148 50.0469 142.711 49.1562C143.32 48.2188 143.766 47.1875 144.047 46.0625C144.328 44.9375 144.469 43.8359 144.469 42.7578C144.469 41.2109 144.164 39.9219 143.555 38.8906C142.992 37.8594 142.219 36.9688 141.234 36.2188C140.297 35.4219 139.195 34.7656 137.93 34.25C136.711 33.6875 135.469 33.125 134.203 32.5625C133.031 32.0938 131.625 31.5078 129.984 30.8047C128.344 30.0547 126.773 29.0938 125.273 27.9219C123.773 26.7031 122.484 25.2266 121.406 23.4922C120.375 21.7109 119.859 19.5312 119.859 16.9531C119.859 15.2656 120.305 13.5547 121.195 11.8203C122.086 10.0859 123.352 8.51562 124.992 7.10938C126.633 5.65625 128.602 4.48437 130.898 3.59375C133.242 2.70313 135.867 2.25781 138.773 2.25781C141.633 2.25781 143.953 2.51562 145.734 3.03125C147.516 3.54688 148.898 4.22656 149.883 5.07031C150.867 5.86719 151.523 6.75781 151.852 7.74219C152.227 8.67969 152.414 9.57031 152.414 10.4141C152.414 11.2578 152.156 12.125 151.641 13.0156C151.125 13.8594 150.516 14.6562 149.812 15.4062C149.109 16.1094 148.383 16.7422 147.633 17.3047C146.883 17.8203 146.273 18.1719 145.805 18.3594C146.039 17.75 146.273 16.9062 146.508 15.8281C146.742 14.75 146.672 13.6719 146.297 12.5938C145.969 11.5156 145.148 10.5781 143.836 9.78125C142.57 8.98437 140.508 8.58594 137.648 8.58594C136.008 8.58594 134.414 8.84375 132.867 9.35938C131.32 9.875 129.938 10.5547 128.719 11.3984C127.547 12.1953 126.609 13.1094 125.906 14.1406C125.203 15.1719 124.852 16.2266 124.852 17.3047C124.852 18.3359 125.203 19.2969 125.906 20.1875C126.656 21.0312 127.641 21.8516 128.859 22.6484C130.125 23.3984 131.555 24.1484 133.148 24.8984C134.789 25.6484 136.5 26.3984 138.281 27.1484C140.016 27.8984 141.727 28.7188 143.414 29.6094C145.102 30.4531 146.602 31.4375 147.914 32.5625C149.273 33.6875 150.352 34.9531 151.148 36.3594C151.945 37.7656 152.344 39.3828 152.344 41.2109C152.344 43.1797 151.969 45.0781 151.219 46.9062C150.516 48.6875 149.484 50.2578 148.125 51.6172C146.812 52.9766 145.195 54.0547 143.273 54.8516C141.352 55.6953 139.172 56.1172 136.734 56.1172C134.578 56.1172 132.539 55.7656 130.617 55.0625C128.695 54.3594 127.008 53.4453 125.555 52.3203C124.148 51.1953 123.023 49.9531 122.18 48.5938C121.336 47.2344 120.914 45.8984 120.914 44.5859C120.914 43.1797 121.219 41.9844 121.828 41C122.484 40.0156 123.281 39.2422 124.219 38.6797C125.156 38.0703 126.117 37.6484 127.102 37.4141C128.133 37.1797 129.047 37.1328 129.844 37.2734ZM157.266 25.1094C157.266 24.8281 157.641 24.5234 158.391 24.1953C159.141 23.8672 159.961 23.6094 160.852 23.4219C161.789 23.1875 162.633 23.0703 163.383 23.0703C164.18 23.0234 164.578 23.1875 164.578 23.5625C164.578 24.2656 164.531 25.2734 164.438 26.5859C164.344 27.8516 164.227 29.2109 164.086 30.6641C163.945 32.0703 163.805 33.5 163.664 34.9531C163.523 36.3594 163.43 37.5547 163.383 38.5391C163.289 39.5703 163.195 40.6953 163.102 41.9141C163.008 42.9453 162.938 44.0938 162.891 45.3594C162.844 46.625 162.844 47.9141 162.891 49.2266C162.891 49.4609 162.656 49.6953 162.188 49.9297C161.719 50.1641 161.203 50.3281 160.641 50.4219C160.078 50.5625 159.539 50.6328 159.023 50.6328C158.508 50.6328 158.227 50.5391 158.18 50.3516C158.086 50.1641 157.992 49.8359 157.898 49.3672C157.805 48.8984 157.711 48.2422 157.617 47.3984C157.523 46.5078 157.453 45.3828 157.406 44.0234C157.359 42.6172 157.383 40.9297 157.477 38.9609C157.664 35.0703 157.688 32.0703 157.547 29.9609C157.406 27.8047 157.312 26.1875 157.266 25.1094ZM162.188 11.1172C163.125 11.1172 164.016 11.3984 164.859 11.9609C165.703 12.5234 166.125 13.2734 166.125 14.2109C166.125 14.9141 165.938 15.5938 165.562 16.25C165.234 16.9062 164.812 17.4922 164.297 18.0078C163.781 18.5234 163.195 18.9453 162.539 19.2734C161.883 19.5547 161.273 19.6953 160.711 19.6953C159.961 19.6953 159.352 19.5781 158.883 19.3438C158.414 19.0625 158.039 18.7578 157.758 18.4297C157.523 18.0547 157.359 17.6562 157.266 17.2344C157.172 16.8125 157.125 16.4141 157.125 16.0391C157.125 15.5703 157.195 15.0547 157.336 14.4922C157.477 13.8828 157.734 13.3437 158.109 12.875C158.484 12.3594 159 11.9375 159.656 11.6094C160.312 11.2813 161.156 11.1172 162.188 11.1172ZM160.43 17.6562C160.711 17.6562 161.016 17.5625 161.344 17.375C161.719 17.1406 162.047 16.8828 162.328 16.6016C162.656 16.3203 162.914 16.0156 163.102 15.6875C163.336 15.3594 163.453 15.0781 163.453 14.8438C163.453 14.4688 163.266 14.2812 162.891 14.2812C162.656 14.2812 162.352 14.375 161.977 14.5625C161.648 14.75 161.32 14.9844 160.992 15.2656C160.664 15.5 160.383 15.7812 160.148 16.1094C159.961 16.3906 159.867 16.6719 159.867 16.9531C159.867 17.4219 160.055 17.6562 160.43 17.6562ZM176.742 48.1016C176.695 48.3828 176.438 48.6875 175.969 49.0156C175.547 49.2969 175.031 49.5547 174.422 49.7891C173.859 50.0234 173.32 50.1641 172.805 50.2109C172.289 50.3047 171.938 50.2578 171.75 50.0703C171.562 49.8828 171.258 49.5312 170.836 49.0156C170.414 48.5 170.156 47.6562 170.062 46.4844C169.969 45.2656 169.922 43.7422 169.922 41.9141C169.922 40.0391 169.898 37.9766 169.852 35.7266V32.9141C169.852 32.0703 169.828 31.0859 169.781 29.9609C169.781 28.8359 169.758 27.6641 169.711 26.4453C170.133 26.2109 170.555 26 170.977 25.8125C171.445 25.5781 171.867 25.3906 172.242 25.25C172.664 25.0625 173.062 24.9219 173.438 24.8281C174.422 24.5469 175.172 24.3828 175.688 24.3359C176.203 24.2891 176.508 24.4531 176.602 24.8281C176.648 25.1094 176.625 25.7891 176.531 26.8672C176.438 27.8047 176.32 29.2344 176.18 31.1562C176.039 33.0312 175.805 35.6562 175.477 39.0312C176.086 37.5312 176.578 36.2422 176.953 35.1641C177.375 34.0859 177.727 33.2188 178.008 32.5625C178.289 31.7656 178.547 31.1328 178.781 30.6641C179.016 30.0547 179.32 29.375 179.695 28.625C180.07 27.875 180.445 27.1719 180.82 26.5156C181.242 25.8594 181.617 25.2734 181.945 24.7578C182.32 24.2422 182.602 23.9375 182.789 23.8438C182.93 23.75 183.352 23.75 184.055 23.8438C184.758 23.9375 185.508 24.1719 186.305 24.5469C187.102 24.875 187.875 25.3672 188.625 26.0234C189.375 26.6328 189.867 27.3828 190.102 28.2734C190.383 29.3047 190.477 30.6641 190.383 32.3516C190.336 34.0391 190.219 35.7734 190.031 37.5547C189.891 39.3359 189.773 41.0234 189.68 42.6172C189.586 44.2109 189.68 45.4297 189.961 46.2734C190.055 46.7422 190.195 47.1641 190.383 47.5391C190.477 47.9141 190.594 48.2656 190.734 48.5938C190.922 48.875 191.109 49.0859 191.297 49.2266C190.172 49.7422 189.258 50.1172 188.555 50.3516C187.852 50.5859 187.312 50.75 186.938 50.8438C186.469 50.9844 186.141 51.0312 185.953 50.9844C185.531 50.8438 185.156 50.4922 184.828 49.9297C184.547 49.3672 184.289 48.4766 184.055 47.2578C183.961 46.8828 183.914 46.2734 183.914 45.4297C183.961 44.5391 184.031 43.5547 184.125 42.4766C184.219 41.3516 184.312 40.2031 184.406 39.0312C184.547 37.8125 184.641 36.6875 184.688 35.6562C184.781 34.5781 184.852 33.6641 184.898 32.9141C184.945 32.1172 184.945 31.5781 184.898 31.2969C184.664 30.4531 184.336 29.8672 183.914 29.5391C183.492 29.1641 183.164 29.1172 182.93 29.3984C182.32 30.1016 181.664 31.25 180.961 32.8438C180.305 34.3906 179.672 36.1016 179.062 37.9766C178.453 39.8047 177.938 41.6328 177.516 43.4609C177.094 45.2891 176.836 46.8359 176.742 48.1016ZM203.109 50.6328C202.125 50.6328 201.117 50.375 200.086 49.8594C199.055 49.3438 198.094 48.5703 197.203 47.5391C196.312 46.4609 195.586 45.1484 195.023 43.6016C194.461 42.0078 194.18 40.1562 194.18 38.0469C194.18 34.9531 194.578 32.3984 195.375 30.3828C196.172 28.3203 197.133 26.6797 198.258 25.4609C199.43 24.1953 200.695 23.3047 202.055 22.7891C203.414 22.2734 204.656 22.0156 205.781 22.0156C206.953 22.0156 207.914 22.2266 208.664 22.6484C209.461 23.0234 210.117 23.4688 210.633 23.9844V22.6484C210.914 22.4141 211.219 22.2031 211.547 22.0156C211.922 21.8281 212.297 21.6875 212.672 21.5938C213.047 21.4531 213.445 21.3828 213.867 21.3828H214.922C215.203 21.4297 215.484 21.4766 215.766 21.5234C216.094 21.5703 216.328 21.6875 216.469 21.875C216.188 28.0156 215.953 32.9844 215.766 36.7812C215.578 40.5781 215.438 43.5312 215.344 45.6406C215.203 48.125 215.109 49.9297 215.062 51.0547C214.969 53.0234 214.711 54.9688 214.289 56.8906C213.867 58.8594 213.211 60.6172 212.32 62.1641C211.43 63.7109 210.258 64.9531 208.805 65.8906C207.352 66.8281 205.57 67.2969 203.461 67.2969C201.633 67.2969 200.156 66.9453 199.031 66.2422C197.953 65.5391 197.109 64.6719 196.5 63.6406C195.938 62.6094 195.562 61.5078 195.375 60.3359C195.188 59.2109 195.094 58.1797 195.094 57.2422C195.094 57.0078 195.211 56.6562 195.445 56.1875C195.727 55.7188 196.102 55.2266 196.57 54.7109C197.086 54.2422 197.719 53.8203 198.469 53.4453C199.219 53.0703 200.062 52.8359 201 52.7422C200.578 54.0078 200.32 55.1562 200.227 56.1875C200.133 56.75 200.109 57.3125 200.156 57.875C200.156 59.4219 200.461 60.7109 201.07 61.7422C201.68 62.7734 202.617 63.2891 203.883 63.2891C205.242 63.2891 206.344 62.7031 207.188 61.5312C208.031 60.4062 208.664 59.0234 209.086 57.3828C209.555 55.7891 209.859 54.1016 210 52.3203C210.188 50.5859 210.281 49.1094 210.281 47.8906V45.8516C210 46.3672 209.648 46.9062 209.227 47.4688C208.852 48.0312 208.383 48.5469 207.82 49.0156C207.258 49.4844 206.578 49.8594 205.781 50.1406C205.031 50.4688 204.141 50.6328 203.109 50.6328ZM205.992 26.0234C205.195 26.0234 204.422 26.375 203.672 27.0781C202.969 27.7812 202.336 28.7188 201.773 29.8906C201.211 31.0156 200.766 32.3047 200.438 33.7578C200.109 35.2109 199.945 36.6641 199.945 38.1172C199.945 39.0547 199.992 40.0156 200.086 41C200.227 41.9844 200.461 42.8984 200.789 43.7422C201.164 44.5391 201.633 45.1953 202.195 45.7109C202.758 46.2266 203.508 46.4844 204.445 46.4844C205.148 46.4375 205.805 46.1562 206.414 45.6406C206.93 45.2188 207.445 44.5391 207.961 43.6016C208.523 42.6641 208.969 41.3281 209.297 39.5938C209.672 39.9688 209.953 40.3203 210.141 40.6484C210.375 40.9766 210.562 41.2812 210.703 41.5625C210.75 41.1875 210.773 40.7422 210.773 40.2266C210.82 39.7109 210.844 39.125 210.844 38.4688C210.844 37.2031 210.773 35.8438 210.633 34.3906C210.492 32.8906 210.234 31.5312 209.859 30.3125C209.531 29.0938 209.039 28.0859 208.383 27.2891C207.773 26.4453 206.977 26.0234 205.992 26.0234ZM226.734 38.9609C227.297 37.2734 227.766 35.8438 228.141 34.6719C228.562 33.5 228.914 32.5625 229.195 31.8594C229.523 31.0156 229.805 30.3359 230.039 29.8203C230.32 29.0703 230.625 28.3203 230.953 27.5703C231.328 26.8203 231.703 26.1406 232.078 25.5312C232.453 24.875 232.805 24.3359 233.133 23.9141C233.461 23.4922 233.742 23.2109 233.977 23.0703C234.164 22.9766 234.586 22.9766 235.242 23.0703C235.945 23.1641 236.695 23.3984 237.492 23.7734C238.336 24.1016 239.109 24.5703 239.812 25.1797C240.562 25.7891 241.078 26.5391 241.359 27.4297C241.641 28.5078 241.734 29.9141 241.641 31.6484C241.547 33.3828 241.406 35.1641 241.219 36.9922C241.078 38.8203 240.961 40.5547 240.867 42.1953C240.82 43.8359 240.938 45.0781 241.219 45.9219C241.406 46.3906 241.594 46.8594 241.781 47.3281C241.969 47.7031 242.18 48.1016 242.414 48.5234C242.695 48.8984 243 49.2266 243.328 49.5078C241.969 50.0234 240.867 50.3984 240.023 50.6328C239.227 50.9141 238.617 51.1016 238.195 51.1953C237.68 51.3359 237.328 51.3594 237.141 51.2656C236.766 51.125 236.414 50.7734 236.086 50.2109C235.758 49.6484 235.477 48.7578 235.242 47.5391C235.148 47.1641 235.125 46.5078 235.172 45.5703C235.219 44.6328 235.289 43.5781 235.383 42.4062C235.477 41.2344 235.57 40.0156 235.664 38.75C235.758 37.4375 235.852 36.2188 235.945 35.0938C236.039 33.9688 236.086 32.9844 236.086 32.1406C236.133 31.2969 236.133 30.7344 236.086 30.4531C235.852 29.6562 235.523 29.0938 235.102 28.7656C234.68 28.3906 234.352 28.3438 234.117 28.625C233.555 29.3281 232.922 30.5469 232.219 32.2812C231.562 33.9688 230.93 35.8203 230.32 37.8359C229.711 39.8047 229.172 41.7734 228.703 43.7422C228.281 45.7109 228.023 47.3281 227.93 48.5938C227.93 48.875 227.695 49.1797 227.227 49.5078C226.805 49.7891 226.312 50.0469 225.75 50.2812C225.234 50.5156 224.719 50.6562 224.203 50.7031C223.688 50.7969 223.336 50.7266 223.148 50.4922C223.008 50.3516 222.703 50.0234 222.234 49.5078C221.812 48.9922 221.578 48.125 221.531 46.9062C221.438 45.7344 221.438 44.1406 221.531 42.125C221.625 40.0625 221.648 37.9062 221.602 35.6562V30.4531C221.602 28.3438 221.578 25.4375 221.531 21.7344C221.531 17.9844 221.508 13.0391 221.461 6.89844C221.977 6.61719 222.445 6.38281 222.867 6.19531C223.289 5.96094 223.688 5.77344 224.062 5.63281C224.484 5.44531 224.883 5.30469 225.258 5.21094C227.273 4.69531 228.328 4.69531 228.422 5.21094C228.469 5.67969 228.422 7.17969 228.281 9.71094C228.234 10.7891 228.164 12.1484 228.07 13.7891C227.977 15.4297 227.859 17.4219 227.719 19.7656C227.625 22.1094 227.484 24.875 227.297 28.0625C227.156 31.2031 226.969 34.8359 226.734 38.9609Z" fill="url(#paint0_linear)"/>
<defs>
<linearGradient id="paint0_linear" x1="-149.5" y1="-53" x2="245" y2="98.5" gradientUnits="userSpaceOnUse">
<stop stop-color="#6600FF"/>
<stop offset="1" stop-color="#00CC99"/>
</linearGradient>
</defs>
</svg>
